<svg xmlns="http://www.w3.org/2000/svg" width="420" height="216" viewBox="0 0 420 216"><g transform="translate(7525 2692)"><rect width="420" height="216" transform="translate(-7525 -2692)" fill="rgba(255,255,255,0)"/><path d="M0,29.96C.651,9.4,9.4.651,29.96,0,50.52.651,59.269,9.4,59.92,29.96c-.651,20.56-9.4,29.309-29.96,29.96C9.4,59.269.651,50.52,0,29.96Z" transform="translate(-7165.037 -2667.942)" fill="#f6b93f"/><path d="M0,29.96C.651,9.4,9.4.651,29.96,0,50.52.651,59.269,9.4,59.92,29.96c-.651,20.56-9.4,29.309-29.96,29.96C9.4,59.269.651,50.52,0,29.96Z" transform="translate(-7242.6 -2667.942)" fill="#00ab77"/><path d="M29.5,59.92a59.957,59.957,0,0,1-6.958-.6C27.607,49.4,34.662,36.829,39.482,33.259c4.162-3.037,6.249-3.674,7.267-3.674a1.845,1.845,0,0,1,.48.057.154.154,0,0,0,.031,0,.038.038,0,0,0,.041-.031c.064-.275-1.534-2.314-3.49-4.453-1.141-1.248-3.979-4.242-5.7-5.082a4.481,4.481,0,0,1-3.482,3.965,3.982,3.982,0,0,1-.908.106h-.043c-.088,0-.179.007-.276.007s-.188,0-.276-.007a4.512,4.512,0,0,1-3.806-3.505,4.606,4.606,0,0,1-.057-1.575,4.513,4.513,0,0,1,.6-1.768l-.081.018L11.185,21.478l-.506.113L0,23.978A34.318,34.318,0,0,1,2.908,13.439,20.735,20.735,0,0,1,8.626,6.1,24.471,24.471,0,0,1,17.4,1.7,49,49,0,0,1,29.5,0,46.829,46.829,0,0,1,42.76,2.065a22.724,22.724,0,0,1,9.182,5.449A22.723,22.723,0,0,1,57.392,16.7,46.824,46.824,0,0,1,59.457,29.96a46.826,46.826,0,0,1-2.065,13.264,22.724,22.724,0,0,1-5.449,9.182,22.724,22.724,0,0,1-9.182,5.449A46.825,46.825,0,0,1,29.5,59.92Zm17.15-29.234h0a10.606,10.606,0,0,0-5.3,3.592l2.786.552,2.518-4.144ZM33.606,23.042h0l.129,0a2.917,2.917,0,0,0,.558-.054,3.24,3.24,0,0,0,2.623-3.363l.384-.215,7.829-5.166L33.137,16.606a3.233,3.233,0,0,0-2.579,2.673,3.326,3.326,0,0,0,0,1.134,3.245,3.245,0,0,0,2.649,2.616c.112.01.223.015.329.015Z" transform="translate(-7319.61 -2667.942)" fill="#46a0cd"/><path d="M60.724-142.765a22.854,22.854,0,0,0-1.493-8.3,20.8,20.8,0,0,0-4.093-6.693,19.733,19.733,0,0,0-6.084-4.48,17.146,17.146,0,0,0-7.467-1.659,17.146,17.146,0,0,0-7.467,1.659,19.326,19.326,0,0,0-6.084,4.535,22.493,22.493,0,0,0-4.148,6.693,21.708,21.708,0,0,0-1.549,8.241,22.13,22.13,0,0,0,1.549,8.3,22.454,22.454,0,0,0,4.2,6.8,19.576,19.576,0,0,0,6.139,4.591,16.9,16.9,0,0,0,7.356,1.659,17.146,17.146,0,0,0,7.467-1.659,19.327,19.327,0,0,0,6.084-4.535,21.476,21.476,0,0,0,4.093-6.748A23.166,23.166,0,0,0,60.724-142.765Zm9.4,0a30.773,30.773,0,0,1-2.268,11.892,30.388,30.388,0,0,1-6.139,9.513,27.874,27.874,0,0,1-9.071,6.305,27.367,27.367,0,0,1-11.062,2.268A27.341,27.341,0,0,1,30.3-115.11a28.6,28.6,0,0,1-9.071-6.361,29.612,29.612,0,0,1-6.084-9.513,31.149,31.149,0,0,1-2.212-11.781v-53.651h9.071V-162.9a26.162,26.162,0,0,1,8.628-7.024,23.961,23.961,0,0,1,11.062-2.6,27.25,27.25,0,0,1,11.117,2.268A28.465,28.465,0,0,1,61.83-164a29.109,29.109,0,0,1,6.084,9.4A31.027,31.027,0,0,1,70.127-142.765Zm36.339,21.018a17.733,17.733,0,0,0,7.488-1.6,19.692,19.692,0,0,0,6.157-4.425,20.568,20.568,0,0,0,4.16-6.582,21.626,21.626,0,0,0,1.5-8.075,22.49,22.49,0,0,0-1.5-8.186,20.936,20.936,0,0,0-4.16-6.748,20.036,20.036,0,0,0-6.157-4.535,17.235,17.235,0,0,0-7.488-1.659,17.235,17.235,0,0,0-7.488,1.659,19.383,19.383,0,0,0-6.1,4.535,21.462,21.462,0,0,0-4.105,6.748,22.49,22.49,0,0,0-1.5,8.186,21.626,21.626,0,0,0,1.5,8.075,21.082,21.082,0,0,0,4.105,6.582,19.053,19.053,0,0,0,6.1,4.425A17.734,17.734,0,0,0,106.466-121.747Zm.055-50.885a27.13,27.13,0,0,1,11.339,2.383,28.1,28.1,0,0,1,9.071,6.483,30.861,30.861,0,0,1,6.029,9.587,30.962,30.962,0,0,1,2.212,11.691,30.126,30.126,0,0,1-2.212,11.581,31.209,31.209,0,0,1-6.029,9.475A27.408,27.408,0,0,1,117.859-115a27.68,27.68,0,0,1-11.339,2.327A27.3,27.3,0,0,1,95.238-115a28.185,28.185,0,0,1-9.071-6.428,30.673,30.673,0,0,1-6.084-9.475,30.125,30.125,0,0,1-2.212-11.581,30.962,30.962,0,0,1,2.212-11.691,30.339,30.339,0,0,1,6.084-9.587,28.919,28.919,0,0,1,9.071-6.483A26.756,26.756,0,0,1,106.521-172.633Zm33.739,1.549h9.956l15.708,44.469h.111l15.708-44.469H191.7l-20.686,56.97H160.946Z" transform="translate(-7537.936 -2495.584)" fill="#46a0cd"/><path d="M60.724-142.544a23.3,23.3,0,0,0-1.493-8.352,20.674,20.674,0,0,0-4.093-6.748,19.733,19.733,0,0,0-6.084-4.48,17.146,17.146,0,0,0-7.467-1.659,16.9,16.9,0,0,0-7.356,1.659,19.978,19.978,0,0,0-6.139,4.535,21.744,21.744,0,0,0-4.2,6.748,22.13,22.13,0,0,0-1.549,8.3,22.13,22.13,0,0,0,1.549,8.3,22.314,22.314,0,0,0,4.148,6.748,19.326,19.326,0,0,0,6.084,4.535,17.146,17.146,0,0,0,7.467,1.659,17.146,17.146,0,0,0,7.467-1.659,19.733,19.733,0,0,0,6.084-4.48,20.8,20.8,0,0,0,4.093-6.693A23.166,23.166,0,0,0,60.724-142.544Zm9.4,0a31.447,31.447,0,0,1-2.212,11.892,28.967,28.967,0,0,1-6.084,9.458,28.465,28.465,0,0,1-9.016,6.25A27.25,27.25,0,0,1,41.7-112.676a23.555,23.555,0,0,1-11.062-2.655,27.451,27.451,0,0,1-8.628-6.969v33.518H12.936v-53.762a31.149,31.149,0,0,1,2.212-11.781,29.612,29.612,0,0,1,6.084-9.513A28.6,28.6,0,0,1,30.3-170.2a27.34,27.34,0,0,1,11.283-2.323,27.367,27.367,0,0,1,11.062,2.268,27.874,27.874,0,0,1,9.071,6.305,30.388,30.388,0,0,1,6.139,9.513A30.773,30.773,0,0,1,70.127-142.544Zm10.62-53.872h9.4v61.173a15.838,15.838,0,0,0,1.042,6.195,9.266,9.266,0,0,0,2.852,3.816,10.265,10.265,0,0,0,4.223,1.881,20.617,20.617,0,0,0,5.046.387v8.85a24.668,24.668,0,0,1-9.126-.553,16.925,16.925,0,0,1-7.135-3.816,18.232,18.232,0,0,1-4.646-6.858,25.628,25.628,0,0,1-1.659-9.569Zm76.439,53.872a22.185,22.185,0,0,0-1.544-8.3,22.468,22.468,0,0,0-4.191-6.8,19.524,19.524,0,0,0-6.121-4.591,16.812,16.812,0,0,0-7.336-1.659,17.058,17.058,0,0,0-7.445,1.659,19.921,19.921,0,0,0-6.122,4.535,20.827,20.827,0,0,0-4.136,6.8,23.357,23.357,0,0,0-1.489,8.352,22.786,22.786,0,0,0,1.489,8.352,21.1,21.1,0,0,0,4.136,6.693,19.176,19.176,0,0,0,6.122,4.48,17.55,17.55,0,0,0,7.445,1.6,17.058,17.058,0,0,0,7.445-1.659,19.27,19.27,0,0,0,6.067-4.535,22.508,22.508,0,0,0,4.136-6.693A21.762,21.762,0,0,0,157.185-142.544Zm9.4,28.429h-9.182l0-8.85a25.009,25.009,0,0,1-8.443,7.467,22.878,22.878,0,0,1-11.2,2.821,27.254,27.254,0,0,1-11.037-2.268,28.227,28.227,0,0,1-9.051-6.25,28.971,28.971,0,0,1-6.07-9.458,31.512,31.512,0,0,1-2.207-11.892,30.773,30.773,0,0,1,2.268-11.892,30.387,30.387,0,0,1,6.139-9.513,27.875,27.875,0,0,1,9.071-6.305,27.638,27.638,0,0,1,11.173-2.268,27.34,27.34,0,0,1,11.283,2.323,27.964,27.964,0,0,1,9.016,6.361,30.111,30.111,0,0,1,6.029,9.513,31.149,31.149,0,0,1,2.212,11.781Zm35.4,0a24.669,24.669,0,0,1-9.126-.553,16.5,16.5,0,0,1-7.08-3.816,18.555,18.555,0,0,1-4.591-6.858,25.628,25.628,0,0,1-1.659-9.569v-48.341h9.4v12.168h12.832v8.96H188.933v27.213a15.838,15.838,0,0,0,1.042,6.195,9.266,9.266,0,0,0,2.852,3.816A10.254,10.254,0,0,0,197-123.019a17.123,17.123,0,0,0,4.991.277Zm24.558-56.859h12.832v9.071H226.544v47.788h-9.4v-59.071q0-12.611,6.527-18.474,5.973-5.42,15.929-4.314v8.518q-6.362-.442-9.543,2.544a9.484,9.484,0,0,0-2.852,5.42,33.626,33.626,0,0,0-.659,6.305Zm47.18,49.226a17.733,17.733,0,0,0,7.488-1.6,19.693,19.693,0,0,0,6.157-4.425,20.569,20.569,0,0,0,4.16-6.582,21.626,21.626,0,0,0,1.5-8.075,22.49,22.49,0,0,0-1.5-8.186,20.937,20.937,0,0,0-4.16-6.748,20.036,20.036,0,0,0-6.157-4.535,17.235,17.235,0,0,0-7.488-1.659,17.235,17.235,0,0,0-7.489,1.659,19.383,19.383,0,0,0-6.1,4.535,21.461,21.461,0,0,0-4.105,6.748,22.49,22.49,0,0,0-1.5,8.186,21.626,21.626,0,0,0,1.5,8.075,21.082,21.082,0,0,0,4.105,6.582,19.053,19.053,0,0,0,6.1,4.425A17.733,17.733,0,0,0,273.724-121.747Zm.055-50.885a27.13,27.13,0,0,1,11.339,2.383,28.1,28.1,0,0,1,9.071,6.483,30.862,30.862,0,0,1,6.029,9.587,30.962,30.962,0,0,1,2.212,11.691,30.126,30.126,0,0,1-2.212,11.581,31.21,31.21,0,0,1-6.029,9.475A27.408,27.408,0,0,1,285.117-115a27.68,27.68,0,0,1-11.339,2.327A27.3,27.3,0,0,1,262.5-115a28.185,28.185,0,0,1-9.071-6.428,30.672,30.672,0,0,1-6.084-9.475,30.125,30.125,0,0,1-2.212-11.581,30.961,30.961,0,0,1,2.212-11.691,30.339,30.339,0,0,1,6.084-9.587,28.919,28.919,0,0,1,9.071-6.483A26.756,26.756,0,0,1,273.779-172.633Zm39.934,24.668a27.622,27.622,0,0,1,2.157-11.283,21.569,21.569,0,0,1,5.863-7.965,21.742,21.742,0,0,1,8.628-4.37,28.586,28.586,0,0,1,10.564-.608v8.739q-8.245-.774-13.027,3.1t-4.783,12.168v34.071h-9.4Zm114.824,33.85h-9.4v-36.837a13.154,13.154,0,0,0-3.374-9.292,11.685,11.685,0,0,0-9.016-3.65,11.685,11.685,0,0,0-9.016,3.65,13.155,13.155,0,0,0-3.374,9.292v36.837h-9.4v-36.837a13.155,13.155,0,0,0-3.374-9.292,11.685,11.685,0,0,0-9.016-3.65,11.685,11.685,0,0,0-9.016,3.65,13.155,13.155,0,0,0-3.374,9.292v36.837h-9.4v-36.5a22.879,22.879,0,0,1,1.6-8.628,21.536,21.536,0,0,1,4.48-6.969,20.169,20.169,0,0,1,6.858-4.646,22.8,22.8,0,0,1,8.85-1.659,19.67,19.67,0,0,1,10.177,2.544,19.1,19.1,0,0,1,6.858,6.858,18.972,18.972,0,0,1,6.914-6.858,19.97,19.97,0,0,1,10.232-2.544,22.8,22.8,0,0,1,8.85,1.659,20.168,20.168,0,0,1,6.858,4.646,21.536,21.536,0,0,1,4.48,6.969,22.879,22.879,0,0,1,1.6,8.628Z" transform="translate(-7537.936 -2387.896)" fill="#333"/></g></svg>